<?xml version="1.0" encoding="utf-8"?>
<!-- Generator: Adobe Illustrator 26.5.0, SVG Export Plug-In . SVG Version: 6.00 Build 0)  -->
<svg version="1.1" id="Layer_1" xmlns="http://www.w3.org/2000/svg" xmlns:xlink="http://www.w3.org/1999/xlink" x="0px" y="0px"
	 viewBox="0 0 40 41" style="enable-background:new 0 0 40 41;" xml:space="preserve">
<style type="text/css">
	.st0{display:none;}
	.st1{display:inline;}
	.st2{display:inline;clip-path:url(#SVGID_00000036209883742580135220000016348071191756242616_);}
	.st3{fill:#FFFFFF;}
</style>
<g class="st0">
	<defs>
		<rect id="SVGID_1_" y="0" width="40" height="40"/>
	</defs>
	<clipPath id="SVGID_00000091001031218275762300000015087590698481600944_" class="st1">
		<use xlink:href="#SVGID_1_"  style="overflow:visible;"/>
	</clipPath>
	<g style="display:inline;clip-path:url(#SVGID_00000091001031218275762300000015087590698481600944_);">
		<path class="st3" d="M39.7,29.1l-4.1-2.1l-2.6-6.8c0-0.1-0.1-0.2-0.1-0.2s-0.1-0.1-0.2-0.1l-16.2-6.5c-0.1,0-0.2-0.1-0.4,0
			c-0.1,0-0.2,0.1-0.3,0.2l-2.2,2.2c-0.1,0.1-0.1,0.2-0.2,0.3c0,0.1,0,0.2,0,0.4l6.5,16.2c0,0.1,0.1,0.2,0.1,0.2
			c0.1,0.1,0.1,0.1,0.2,0.1l6.8,2.6l2,4.1c0,0.1,0.1,0.2,0.2,0.2c0.1,0.1,0.2,0.1,0.3,0.1c0,0,0.1,0,0.1,0c0.2,0,0.3-0.1,0.4-0.2
			l9.7-9.7c0.1-0.1,0.1-0.2,0.2-0.2c0-0.1,0-0.2,0-0.3c0-0.1-0.1-0.2-0.1-0.3C39.8,29.2,39.7,29.2,39.7,29.1z M14.7,16.3l0.3-0.3
			l8.1,8.1c-0.5,0.8-0.8,1.7-0.6,2.6c0.1,0.9,0.6,1.8,1.3,2.3c0.7,0.6,1.6,0.9,2.5,0.9c0.9,0,1.8-0.4,2.4-1.1s1-1.5,1.1-2.4
			c0-0.9-0.3-1.8-0.9-2.5c-0.6-0.7-1.4-1.2-2.3-1.3c-0.9-0.1-1.8,0.1-2.6,0.6L16,15.1l0.3-0.3L31.9,21l2.5,6.4l-7,7L21,31.9
			L14.7,16.3z M26.2,23.7c0.6,0,1.1,0.2,1.5,0.6c0.4,0.4,0.7,0.9,0.8,1.4c0.1,0.6,0,1.1-0.2,1.6c-0.3,0.5-0.7,0.9-1.2,1.1
			c-0.5,0.2-1.1,0.2-1.6,0.1c-0.5-0.2-1-0.5-1.3-1c-0.3-0.5-0.5-1-0.4-1.6c0.1-0.6,0.3-1.1,0.7-1.5C24.9,24,25.5,23.7,26.2,23.7z
			 M29.8,38.3l-1.6-3.1l6.9-6.9l3.1,1.6L29.8,38.3z"/>
		<path class="st3" d="M12,33.5c-0.1-0.1-0.3-0.2-0.4-0.2c-0.2,0-0.3,0.1-0.4,0.2l-0.8,0.8c-2.1-2.9-3.3-6.3-3.3-9.9s1-7.1,3-10
			c0.6,0.3,1.3,0.5,2,0.4c0.7-0.1,1.3-0.4,1.8-0.9c0.5-0.5,0.8-1.1,0.9-1.8c0.1-0.7,0-1.4-0.4-2c2.9-2,6.4-3.1,10-3
			c3.6,0.1,7,1.2,9.9,3.3l-0.8,0.8c-0.1,0.1-0.2,0.3-0.2,0.4c0,0.1,0,0.2,0,0.2c0,0.1,0.1,0.1,0.1,0.2l2.8,2.7
			c0.1,0.1,0.3,0.2,0.4,0.2c0.2,0,0.3-0.1,0.4-0.2l2.7-2.7c0.1-0.1,0.1-0.1,0.1-0.2c0-0.1,0-0.2,0-0.2c0-0.1,0-0.2,0-0.2
			c0-0.1-0.1-0.1-0.1-0.2l-2.7-2.7c-0.1-0.1-0.3-0.2-0.4-0.2c-0.2,0-0.3,0.1-0.4,0.2l-1.1,1.1c-2.6-2-5.7-3.2-8.9-3.6
			s-6.5,0.1-9.5,1.4l3.6-3.6c0.4,0.2,0.9,0.2,1.3,0.1C22,3.7,22.4,3.4,22.7,3C22.9,2.7,23,2.2,23,1.8c0-0.5-0.2-0.9-0.6-1.2
			C22.1,0.2,21.7,0,21.2,0c-0.5,0-0.9,0.1-1.3,0.4c-0.4,0.3-0.6,0.7-0.7,1.1c-0.1,0.4-0.1,0.9,0.1,1.3l-6.1,6.1
			c-0.6-0.4-1.4-0.6-2.1-0.5c-0.7,0.1-1.4,0.4-2,0.9c-0.5,0.5-0.9,1.2-0.9,2c-0.1,0.7,0.1,1.5,0.5,2.1l-6.1,6.1
			c-0.4-0.2-0.9-0.2-1.3-0.1C1,19.4,0.6,19.6,0.3,20C0.1,20.4,0,20.8,0,21.3s0.2,0.9,0.6,1.2C0.9,22.8,1.3,23,1.8,23
			c0.5,0,0.9-0.1,1.3-0.3c0.4-0.3,0.6-0.6,0.7-1.1c0.1-0.4,0.1-0.9-0.1-1.3l3.6-3.6c-1.3,3-1.8,6.3-1.4,9.5s1.6,6.3,3.6,8.9
			l-1.1,1.1c-0.1,0.1-0.2,0.3-0.2,0.4c0,0.2,0.1,0.3,0.2,0.4l2.7,2.7c0.1,0.1,0.3,0.2,0.4,0.2c0.1,0,0.2,0,0.2,0
			c0.1,0,0.1-0.1,0.2-0.1l2.7-2.7c0.1-0.1,0.2-0.3,0.2-0.4c0-0.2-0.1-0.3-0.2-0.4L12,33.5z M36.6,9.7l1.9,1.9l-1.9,1.9l-1.9-1.9
			L36.6,9.7z M20.6,1.5c0.1-0.1,0.2-0.2,0.3-0.2c0.1,0,0.3,0,0.4,0c0.1,0.1,0.2,0.1,0.3,0.2c0.1,0.1,0.1,0.2,0.1,0.4
			c0,0.1,0,0.3-0.1,0.4c-0.1,0.1-0.2,0.2-0.3,0.2c-0.1,0.1-0.3,0.1-0.4,0c-0.1,0-0.2-0.1-0.3-0.2c-0.1-0.1-0.1-0.1-0.1-0.2
			c0-0.1-0.1-0.2-0.1-0.3c0-0.1,0-0.2,0.1-0.3C20.5,1.6,20.6,1.5,20.6,1.5z M10.1,10.1c0.2-0.2,0.4-0.3,0.6-0.4
			c0.2-0.1,0.5-0.1,0.7-0.1c0.3,0,0.5,0.1,0.7,0.1c0.2,0.1,0.5,0.2,0.6,0.4c0.3,0.3,0.5,0.6,0.5,1c0.1,0.4,0,0.8-0.1,1.1
			c-0.1,0.4-0.4,0.7-0.7,0.9c-0.3,0.2-0.7,0.3-1.1,0.3c-0.4,0-0.8-0.1-1.1-0.3c-0.3-0.2-0.6-0.5-0.7-0.9c-0.1-0.4-0.2-0.8-0.1-1.1
			C9.7,10.8,9.9,10.4,10.1,10.1z M2.4,21.6c-0.1,0.1-0.3,0.2-0.5,0.2s-0.3-0.1-0.4-0.2c-0.1-0.1-0.2-0.3-0.2-0.4
			c0-0.2,0-0.3,0.2-0.5c0.1-0.1,0.3-0.2,0.5-0.2s0.3,0.1,0.5,0.2c0.1,0.1,0.1,0.1,0.1,0.2c0,0.1,0.1,0.2,0.1,0.3
			c0,0.1,0,0.2-0.1,0.3C2.5,21.4,2.4,21.5,2.4,21.6z M11.5,38.5l-1.9-1.9l1.9-1.9l1.9,1.9L11.5,38.5z"/>
	</g>
</g>
<image style="overflow:visible;" width="512" height="512" xlink:href="motion-graphics.png"  transform="matrix(7.812500e-02 0 0 7.812500e-02 0 0.5)">
</image>
</svg>
